<svg width="30" height="30" viewBox="0 0 30 30" fill="none" xmlns="http://www.w3.org/2000/svg">
<path d="M15 0C6.72896 0 0 6.72896 0 15C0 23.271 6.72896 30 15 30C23.271 30 30 23.271 30 15C30 6.72896 23.271 0 15 0ZM15 28.2838C7.67534 28.2838 1.71618 22.3247 1.71618 15C1.71618 7.67534 7.67534 1.71618 15 1.71618C22.3247 1.71618 28.2838 7.67534 28.2838 15C28.2838 22.3247 22.3247 28.2838 15 28.2838Z" fill="#EDB65C"/>
<path d="M20.4629 7.65869H9.53809C8.53917 7.65869 7.72656 8.4713 7.72656 9.47022V20.5301C7.72656 21.529 8.53917 22.3416 9.53809 22.3416H20.4629C21.4618 22.3416 22.2744 21.529 22.2744 20.5301V9.47022C22.2744 8.4714 21.4618 7.65869 20.4629 7.65869ZM20.5583 20.5301C20.5583 20.5827 20.5155 20.6254 20.4629 20.6254H9.53809C9.48546 20.6254 9.44274 20.5827 9.44274 20.5301V9.47022C9.44274 9.41759 9.48546 9.37487 9.53809 9.37487H20.4629C20.5155 9.37487 20.5583 9.41759 20.5583 9.47022V20.5301Z" fill="#EDB65C"/>
<path d="M19.4694 10.6606H17.5039V12.4637H19.4694V10.6606Z" fill="#EDB65C"/>
<path d="M14.9983 17.6641C16.0685 17.6641 16.9361 16.7965 16.9361 15.7263C16.9361 14.6561 16.0685 13.7886 14.9983 13.7886C13.9281 13.7886 13.0605 14.6561 13.0605 15.7263C13.0605 16.7965 13.9281 17.6641 14.9983 17.6641Z" fill="#EDB65C"/>
<path d="M18.0929 15.7181C18.0929 17.4251 16.7091 18.8089 15.002 18.8089C13.295 18.8089 11.9112 17.4251 11.9112 15.7181L11.9154 14.3408H10.5332V19.4666H19.471V14.3408H18.1L18.0929 15.7181Z" fill="#EDB65C"/>
</svg>
