<svg width="24" height="24" viewBox="0 0 24 24" fill="none" xmlns="http://www.w3.org/2000/svg">
<path opacity="0.5" fill-rule="evenodd" clip-rule="evenodd" d="M7 9C7 6.24 9.24 4 12 4C14.76 4 17 6.24 17 9C17 11.88 14.11 16.19 12 18.88C9.92 16.21 7 11.85 7 9ZM9.50031 9.00001C9.50031 10.38 10.6203 11.5 12.0003 11.5C13.3803 11.5 14.5003 10.38 14.5003 9.00001C14.5003 7.62001 13.3803 6.50001 12.0003 6.50001C10.6203 6.50001 9.50031 7.62001 9.50031 9.00001Z" fill="white"/>
<path fill-rule="evenodd" clip-rule="evenodd" d="M5 9C5 5.13 8.13 2 12 2C15.87 2 19 5.13 19 9C19 14.25 12 22 12 22C12 22 5 14.25 5 9ZM11.9994 3.99999C9.23936 3.99999 6.99936 6.23999 6.99936 8.99999C6.99936 11.85 9.91935 16.21 11.9994 18.88C14.1194 16.19 16.9994 11.88 16.9994 8.99999C16.9994 6.23999 14.7594 3.99999 11.9994 3.99999Z" fill="white"/>
<path d="M12 11.5C13.3807 11.5 14.5 10.3807 14.5 9C14.5 7.61929 13.3807 6.5 12 6.5C10.6193 6.5 9.5 7.61929 9.5 9C9.5 10.3807 10.6193 11.5 12 11.5Z" fill="white"/>
</svg>
