<svg width="24" height="24" viewBox="0 0 24 24" fill="none" xmlns="http://www.w3.org/2000/svg">
<path fill-rule="evenodd" clip-rule="evenodd" d="M5.83999 9.85617C7.6273 13.7481 10.8078 16.8423 14.7616 18.5189L14.774 18.5242L15.5379 18.8646C16.5105 19.298 17.6537 18.9902 18.2773 18.1271L19.5517 16.3634C19.6295 16.2556 19.6095 16.1058 19.506 16.0224L17.2813 14.2276C17.1707 14.1383 17.0081 14.1591 16.9234 14.2733L16.0576 15.4417C15.8473 15.7254 15.4675 15.824 15.1458 15.6784C12.1894 14.3405 9.81367 11.9648 8.47574 9.00833C8.33013 8.68657 8.42872 8.30681 8.71248 8.09653L9.88085 7.23067C9.99502 7.14607 10.0158 6.98344 9.92658 6.87284L8.13154 4.6478C8.04811 4.54438 7.89836 4.5243 7.79063 4.60207L6.01734 5.88223C5.14855 6.50942 4.84259 7.66226 5.28605 8.63771L5.83939 9.85487C5.83959 9.85531 5.83979 9.85574 5.83999 9.85617ZM14.1696 19.8972C9.87362 18.0736 6.41826 14.7106 4.47621 10.4808L4.47504 10.4783L3.92054 9.2585C3.18144 7.63275 3.69137 5.71134 5.13935 4.66603L6.91264 3.38587C7.66676 2.84146 8.71499 2.98207 9.29899 3.70596L11.094 5.93101C11.7186 6.70518 11.5731 7.84357 10.774 8.43581L10.1045 8.93197C11.2354 11.1264 13.0278 12.9188 15.2221 14.0497L15.7183 13.3802C16.3105 12.581 17.4489 12.4356 18.2231 13.0601L20.4479 14.8549C21.172 15.4391 21.3124 16.4877 20.7675 17.2418L19.4932 19.0056C18.4538 20.4441 16.5484 20.957 14.9274 20.2348L14.1696 19.8972Z" fill="white"/>
</svg>
