<svg width="60" height="60" viewBox="0 0 60 60" fill="none" xmlns="http://www.w3.org/2000/svg">
<path d="M41.998 30.3504C41.3965 31.6873 40.5789 32.9028 39.5892 33.9593C38.4236 35.2045 37.0216 36.2208 35.4526 36.939C37.3593 37.2746 38.7096 37.7384 39.3912 38.1324C38.1788 38.8333 34.9152 39.7713 30 39.7713C25.0848 39.7713 21.8212 38.8333 20.6089 38.1324C21.2905 37.7383 22.6408 37.2746 24.5476 36.939C22.9785 36.2208 21.5765 35.2045 20.4108 33.9593C19.4211 32.9028 18.6037 31.6882 18.002 30.3504C7.95209 31.779 0 35.0599 0 40.0908C0 47.0264 15.0922 50.6553 30 50.6553C44.9078 50.6553 60 47.0264 60 40.0908C60 35.0599 52.049 31.779 41.998 30.3504ZM30 46.7385C13.1233 46.7385 3.91678 42.3475 3.91678 40.0908C3.91678 38.3113 9.66357 35.2129 20.3591 33.9785C17.9677 34.8602 16.3199 36.1999 16.3199 38.1324C16.3199 42.2326 23.6896 43.6881 30 43.6881C36.3103 43.6881 43.6801 42.2326 43.6801 38.1324C43.6801 36.1999 42.0323 34.8601 39.6409 33.9785C50.3364 35.2129 56.0832 38.3113 56.0832 40.0908C56.0832 42.3475 46.8767 46.7385 30 46.7385Z" fill="#031D1E"/>
<path d="M29.9999 34.2204C35.1024 34.2204 39.2382 30.0856 39.2382 24.9821C39.2382 20.5188 33.1395 15.0206 30.7626 9.81799C30.4726 9.18324 29.5594 9.18819 29.2753 9.82566C26.9708 14.9944 20.7617 20.5257 20.7617 24.9821C20.7616 30.0856 24.8974 34.2204 29.9999 34.2204ZM24.8745 23.8977C25.6749 23.8977 26.324 24.5472 26.324 25.3475C26.324 26.7464 27.4611 27.8834 28.8602 27.8834C29.6606 27.8834 30.3097 28.5326 30.3097 29.333C30.3097 30.1334 29.6605 30.7826 28.8602 30.7826C25.8632 30.7826 23.425 28.3442 23.425 25.3475C23.4248 24.5472 24.0741 23.8977 24.8745 23.8977Z" fill="#031D1E"/>
</svg>
