<svg width="40" height="40" viewBox="0 0 40 40" fill="none" xmlns="http://www.w3.org/2000/svg">
<path d="M29.1035 10.6036C27.9364 10.6036 26.8714 11.049 26.0696 11.7785C25.2678 11.049 24.2028 10.6036 23.0359 10.6036C21.8678 10.6036 20.8018 11.0492 19.9994 11.7789C19.1975 11.0492 18.1326 10.6036 16.9655 10.6036C16.4191 10.6036 15.8952 10.7011 15.4101 10.8797V4.51422C15.4103 2.02511 13.3859 0 10.8978 0C8.40832 0 6.38281 2.02511 6.38281 4.51422V26.385C6.38281 33.8923 12.4909 39.9998 19.9988 39.9998C27.5073 39.9998 33.616 33.8923 33.616 26.385V15.116C33.616 12.6277 31.5916 10.6036 29.1035 10.6036ZM30.6593 26.385C30.6593 32.2618 25.877 37.0431 19.9988 37.0431C14.1212 37.0431 9.33947 32.2618 9.33947 26.385V4.51422C9.33947 3.65541 10.0386 2.95666 10.8978 2.95666C11.7556 2.95666 12.4536 3.65541 12.4536 4.51422V15.1158V18.3585C12.4536 19.1749 13.1155 19.8368 13.9319 19.8368C14.7484 19.8368 15.4103 19.1749 15.4103 18.3585V15.116C15.4103 14.2582 16.1078 13.5602 16.9657 13.5602C17.8231 13.5602 18.5207 14.2582 18.5207 15.116V18.3587C18.5207 19.1751 19.1826 19.837 19.999 19.837C20.8154 19.837 21.4773 19.1751 21.4773 18.3587V15.116C21.4773 14.2582 22.1767 13.5602 23.0361 13.5602C23.8937 13.5602 24.5915 14.2582 24.5915 15.116V18.3587C24.5915 19.1751 25.2534 19.837 26.0698 19.837C26.8862 19.837 27.5481 19.1751 27.5481 18.3587V15.116C27.5481 14.2582 28.2459 13.5602 29.1039 13.5602C29.9617 13.5602 30.6597 14.2582 30.6597 15.116V26.385H30.6593Z" fill="black"/>
</svg>
