<svg width="36" height="36" viewBox="0 0 36 36" fill="none" xmlns="http://www.w3.org/2000/svg">
<path d="M33.8368 1.64746H2.16338C0.970254 1.64746 0 2.61799 0 3.81093V32.1884C0 33.3814 0.970254 34.3518 2.16338 34.3518H33.8369C35.0297 34.3518 35.9999 33.3814 35.9999 32.1884V3.81093C36.0002 2.61808 35.0296 1.64746 33.8368 1.64746ZM27.314 5.28036C27.314 4.8392 27.6716 4.48148 28.1127 4.48148H28.9115C29.3529 4.48148 29.7102 4.83911 29.7102 5.28036V6.18572C29.7102 6.62687 29.3526 6.9845 28.9115 6.9845H28.1127C27.6716 6.9845 27.314 6.62687 27.314 6.18572V5.28036ZM23.5994 5.28036C23.5994 4.8392 23.9572 4.48148 24.3983 4.48148H25.197C25.638 4.48148 25.9958 4.83911 25.9958 5.28036V6.18572C25.9958 6.62687 25.638 6.9845 25.197 6.9845H24.3983C23.9572 6.9845 23.5994 6.62687 23.5994 6.18572V5.28036ZM33.4038 31.7556H2.59609V9.38416H33.4038V31.7556V31.7556ZM33.4248 6.18572C33.4248 6.62687 33.0672 6.9845 32.6261 6.9845H31.8273C31.3858 6.9845 31.0285 6.62687 31.0285 6.18572V5.28036C31.0285 4.8392 31.3861 4.48148 31.8273 4.48148H32.6261C33.0673 4.48148 33.4248 4.83911 33.4248 5.28036V6.18572Z" fill="#9A9A9A"/>
<path d="M7.72805 21.414L13.5187 24.1068C13.6685 24.1761 13.8278 24.2113 13.9926 24.2113C14.2072 24.2113 14.4164 24.1503 14.5982 24.0347C14.9238 23.8266 15.1183 23.472 15.1183 23.0861V23.0565C15.1183 22.6203 14.8627 22.2198 14.467 22.036L10.8453 20.3532L14.467 18.6703C14.8627 18.4864 15.1183 18.0859 15.1183 17.6498V17.6206C15.1183 17.2341 14.9238 16.8793 14.5982 16.672C14.4182 16.557 14.2085 16.4961 13.9919 16.4961C13.8286 16.4961 13.6649 16.532 13.5183 16.6001L7.72796 19.2927C7.33261 19.4766 7.07715 19.8773 7.07715 20.3131V20.3936C7.07706 20.8288 7.33233 21.2293 7.72805 21.414Z" fill="#9A9A9A"/>
<path d="M15.1695 26.8985C15.3807 27.1875 15.7204 27.3602 16.0782 27.3602H16.1072C16.5985 27.3602 17.0289 27.0457 17.1786 26.5784L20.9931 14.759C21.1025 14.4179 21.0418 14.0414 20.8305 13.7518C20.6193 13.4626 20.2796 13.29 19.9217 13.29H19.8928C19.4013 13.29 18.9704 13.6044 18.8207 14.0717L15.0059 25.892C14.8973 26.2336 14.9584 26.6096 15.1695 26.8985Z" fill="#9A9A9A"/>
<path d="M20.8818 17.6497C20.8818 18.0853 21.1373 18.4859 21.5331 18.6708L25.1548 20.3532L21.5331 22.0358C21.1375 22.2198 20.8818 22.6203 20.8818 23.0564V23.0859C20.8818 23.4719 21.0762 23.8265 21.4021 24.0347C21.5833 24.1502 21.7926 24.2113 22.0075 24.2113C22.1721 24.2113 22.3313 24.1761 22.4821 24.1065L28.2724 21.4137C28.6677 21.2293 28.9232 20.8288 28.9232 20.3934V20.3129C28.9232 19.8771 28.6677 19.4764 28.272 19.2925L22.4817 16.5999C22.3357 16.532 22.1721 16.4961 22.0088 16.4961C21.7926 16.4961 21.5826 16.5568 21.4026 16.6716C21.0766 16.8793 20.8821 17.234 20.8821 17.6205V17.6497H20.8818V17.6497Z" fill="#9A9A9A"/>
</svg>
