<svg width="417" height="417" viewBox="0 0 417 417" fill="none" xmlns="http://www.w3.org/2000/svg">
<g clip-path="url(#clip0)">
<path d="M42.4971 64.0554C44.2791 64.0414 46.0611 64.2315 47.8721 64.6005C61.1321 67.2955 70.2751 79.8774 68.6851 93.3154L61.8101 150.62L63.7161 150.14C77.5681 146.421 92.0121 154.693 95.7171 168.542L107.061 210.942L136.812 240.938C147.229 251.469 153.943 265.137 155.969 279.809L160.75 314.772L167.406 312.989C168.442 312.696 169.526 312.614 170.594 312.749C173.792 313.2 176.406 315.53 177.219 318.655L191.751 372.739C192.903 377.005 190.378 381.395 186.112 382.548C186.106 382.548 186.101 382.55 186.095 382.552L62.5301 415.734C58.2641 416.884 53.8721 414.361 52.7211 410.095C52.7201 410.089 52.7191 410.085 52.7171 410.081L38.3101 355.997C37.1641 351.729 39.6941 347.343 43.9621 346.196C43.9741 346.192 43.9861 346.19 43.9981 346.186L57.4671 342.557L15.2781 264.102C1.97109 239.276 -2.79391 210.823 1.59009 182.989L16.8091 86.1284C18.8241 73.3434 30.0261 64.1944 42.4971 64.1014V64.0554Z" fill="black"/>
<path d="M44.5911 80.1788H44.4661C38.7561 79.0748 33.5681 82.7789 32.6531 88.5829L17.4031 185.411C13.5611 209.804 17.8051 234.741 29.4661 256.495L73.3111 338.265L145.188 318.923L140.125 281.9C138.572 270.65 133.361 260.197 125.375 252.123L92.7801 219.066L80.3731 172.666C78.9031 167.17 73.4621 164.1 67.9661 165.574L64.3101 166.517C58.8031 168.005 55.7431 173.415 57.2161 178.921L75.2791 246.474L59.8101 250.599L41.7471 183.046C39.8781 176.058 41.0581 168.944 44.4661 163.112C44.3631 162.237 44.4051 161.35 44.5911 160.489L52.7161 91.4049C53.3471 86.0729 49.9111 81.3759 44.6851 80.3109C44.6531 80.2579 44.6221 80.2059 44.5911 80.1509V80.1788Z" fill="white"/>
<path d="M163.875 330.547L55.8101 359.484L66.0911 398.103L174.156 369.169L163.875 330.547Z" fill="white"/>
<path d="M163.881 330.539L158.412 332.012L168.318 369.166L65.7241 396.633L66.0991 398.106L174.162 369.172L163.881 330.539Z" fill="white"/>
<path d="M44.4741 80.1813C42.5111 79.7963 40.6921 80.1814 39.0051 80.8044C43.4981 82.3244 46.4261 86.5154 45.8491 91.3984L37.7241 160.486C37.5381 161.347 37.4961 162.236 37.5991 163.111C34.1911 168.945 33.0111 176.056 34.8801 183.047L52.9431 250.574L59.3491 248.855L41.7551 183.046C39.8861 176.056 41.0661 168.944 44.4741 163.11C44.3711 162.235 44.4131 161.346 44.5991 160.485L52.7241 91.3974C53.3551 86.0654 49.9191 81.3664 44.6931 80.3034C44.6611 80.2504 44.6301 80.1984 44.5991 80.1434L44.4741 80.1813ZM72.0061 165.268C70.7001 165.108 69.3491 165.268 67.9751 165.588L66.9131 165.859C70.0061 166.867 72.5821 169.214 73.5071 172.672L85.9131 219.074L118.507 252.103C126.494 260.177 131.704 270.632 133.257 281.882L138.32 318.911L72.4451 336.628L73.3201 338.253L145.195 318.911L140.132 281.882C138.579 270.632 133.369 260.177 125.382 252.103L92.7881 219.074L80.3821 172.672C79.2801 168.551 75.9251 165.766 72.0071 165.266L72.0061 165.268Z" fill="white"/>
<path d="M373.515 64.0554C371.733 64.0414 369.951 64.2315 368.14 64.6005C354.88 67.2955 345.737 79.8774 347.327 93.3154L354.202 150.62L352.296 150.14C338.444 146.421 324 154.693 320.295 168.542L308.951 210.942L279.2 240.938C268.783 251.469 262.069 265.137 260.043 279.809L255.262 314.772L248.606 312.989C247.57 312.696 246.486 312.614 245.418 312.749C242.22 313.2 239.606 315.53 238.793 318.655L224.261 372.739C223.109 377.005 225.634 381.395 229.9 382.548C229.906 382.548 229.911 382.55 229.917 382.552L353.482 415.734C357.748 416.884 362.14 414.361 363.291 410.095C363.292 410.089 363.293 410.085 363.295 410.081L377.702 355.997C378.848 351.729 376.318 347.343 372.05 346.196C372.038 346.192 372.026 346.19 372.014 346.186L358.545 342.557L400.734 264.102C414.041 239.276 418.806 210.823 414.422 182.989L399.203 86.1284C397.188 73.3434 385.986 64.1944 373.515 64.1014V64.0554Z" fill="black"/>
<path d="M371.421 80.1788H371.546C377.256 79.0748 382.444 82.7789 383.359 88.5829L398.609 185.411C402.451 209.804 398.207 234.741 386.546 256.495L342.701 338.265L270.824 318.923L275.887 281.9C277.44 270.65 282.651 260.197 290.637 252.123L323.232 219.066L335.639 172.666C337.109 167.17 342.55 164.1 348.046 165.574L351.702 166.517C357.209 168.005 360.269 173.415 358.796 178.921L340.733 246.474L356.202 250.599L374.265 183.046C376.134 176.058 374.954 168.944 371.546 163.112C371.649 162.237 371.607 161.35 371.421 160.489L363.296 91.4049C362.665 86.0729 366.101 81.3759 371.327 80.3109C371.359 80.2579 371.391 80.2059 371.421 80.1509V80.1788Z" fill="white"/>
<path d="M252.137 330.547L360.202 359.485L349.921 398.104L241.856 369.17L252.137 330.547Z" fill="white"/>
<path d="M252.131 330.539L251.568 332.633L351.818 359.475L342.099 396.004L349.912 398.098L360.193 359.475L252.131 330.539Z" fill="white"/>
<path d="M371.412 80.1814C371.381 80.2364 371.35 80.2884 371.318 80.3414C370.809 80.5014 370.416 80.7415 369.943 80.9025C373.073 82.1815 375.511 84.8825 376.099 88.6215L391.349 185.457C395.191 209.85 390.947 234.762 379.286 256.514L336.348 336.571L342.692 338.292L386.536 256.517C398.197 234.763 402.44 209.851 398.599 185.46L383.35 88.6244C382.435 82.8194 377.248 79.1124 371.537 80.2184L371.412 80.1814ZM344.006 165.268C343.318 165.428 342.712 165.7 342.068 165.924L344.443 166.516C349.95 168.004 353.01 173.414 351.537 178.922L333.474 246.449L348.943 250.574L349.412 248.761L340.724 246.448L358.787 178.921C360.26 173.413 357.2 167.997 351.693 166.515L348.037 165.572C346.663 165.205 345.312 165.092 344.006 165.252V165.268Z" fill="white"/>
<path d="M164.025 0.00396729C135.433 0.00396729 112.055 23.152 112.055 51.609C112.055 51.609 112.055 51.609 112.055 51.769C112.071 66.958 119.647 79.72 128.945 89.792C153.377 116.265 201.939 173.284 201.939 173.284C205.094 176.954 210.758 177.009 213.987 173.444C213.987 173.444 265.874 114.876 290.879 85.936C299.044 76.489 303.97 64.579 303.99 51.807C303.99 51.807 303.99 51.807 303.99 51.647C303.99 23.19 280.612 0.0429688 252.02 0.0429688C226.069 0.0429688 212.493 16.212 208.214 21.286C202.3 15.829 182.818 0.469 164.026 0L164.025 0.00396729Z" fill="black"/>
<path d="M164.025 16.0635C183.048 16.0635 201.821 37.0845 201.821 37.0845C205.027 41.0025 211.017 41.0025 214.223 37.0845C214.223 37.0845 232.996 16.0635 252.019 16.0635C272.022 16.0635 288.043 31.8815 288.043 51.6085C288.03 60.2475 284.597 68.6535 278.712 75.4625C255.843 101.93 215.143 147.917 208.08 155.882C201.204 147.814 163.72 103.769 140.756 78.8865C133.055 70.5425 128.01 61.3845 128 51.6075C128 31.8805 144.021 16.0625 164.024 16.0625V16.0635H164.025Z" fill="black"/>
<path d="M164.037 16.0646C162.488 16.0646 161.002 16.3206 159.506 16.4966C177.267 18.7696 193.819 37.0906 193.819 37.0906C196.402 40.2466 200.721 40.7076 204.007 38.7766C203.223 38.3116 202.437 37.8486 201.819 37.0906C201.819 37.0906 183.061 16.0596 164.038 16.0596V16.0646H164.037ZM252.006 16.0646C250.838 16.0646 249.699 16.3516 248.537 16.4966C266.355 18.6916 280.037 33.4206 280.037 51.6196C280.024 60.2586 276.609 68.6505 270.724 75.4615C249.165 100.413 214.262 139.862 204.13 151.3C204.915 152.228 207.577 155.32 208.068 155.894C215.131 147.927 255.855 101.929 278.724 75.4615C284.608 68.6505 288.023 60.2586 288.037 51.6196C288.037 31.8926 272.009 16.0586 252.006 16.0586V16.0646V16.0646Z" fill="black"/>
</g>
<defs>
<clipPath id="clip0">
<rect width="416.011" height="416.011" fill="white"/>
</clipPath>
</defs>
</svg>
