<svg width="16" height="16" viewBox="0 0 16 16" fill="none" xmlns="http://www.w3.org/2000/svg">
<path d="M12.6461 9.91125C12.3185 9.57018 11.9234 9.38783 11.5047 9.38783C11.0893 9.38783 10.6909 9.5668 10.3498 9.90787L9.2827 10.9716C9.1949 10.9243 9.1071 10.8804 9.02268 10.8365C8.90111 10.7757 8.7863 10.7183 8.68836 10.6575C7.6888 10.0227 6.78041 9.19534 5.90917 8.12486C5.48705 7.59131 5.20339 7.14218 4.9974 6.6863C5.27431 6.43303 5.53095 6.16963 5.78085 5.91636C5.8754 5.82181 5.96995 5.72388 6.06451 5.62933C6.77366 4.92018 6.77366 4.00166 6.06451 3.29251L5.14261 2.37061C5.03792 2.26593 4.92986 2.15786 4.82856 2.0498C4.62594 1.84044 4.4132 1.62431 4.1937 1.4217C3.86614 1.09752 3.47442 0.925293 3.06243 0.925293C2.65045 0.925293 2.25197 1.09752 1.91428 1.4217C1.91091 1.42508 1.91091 1.42508 1.90753 1.42845L0.75938 2.58673C0.327136 3.01898 0.0806214 3.54577 0.0265908 4.15699C-0.054455 5.14305 0.235959 6.06157 0.458835 6.66266C1.00589 8.13837 1.82311 9.50602 3.04217 10.9716C4.52126 12.7377 6.30089 14.1324 8.33379 15.1151C9.11048 15.4831 10.1472 15.9188 11.3055 15.9931C11.3764 15.9964 11.4507 15.9998 11.5182 15.9998C12.2983 15.9998 12.9534 15.7195 13.4667 15.1623C13.4701 15.1556 13.4768 15.1522 13.4802 15.1455C13.6558 14.9327 13.8584 14.7402 14.0712 14.5342C14.2164 14.3958 14.3649 14.2506 14.5102 14.0986C14.8445 13.7508 15.0201 13.3456 15.0201 12.9302C15.0201 12.5115 14.8411 12.1096 14.5 11.7719L12.6461 9.91125ZM13.855 13.4671C13.8517 13.4671 13.8517 13.4705 13.855 13.4671C13.7233 13.609 13.5883 13.7373 13.4431 13.8791C13.2236 14.0885 13.0007 14.308 12.7913 14.5545C12.4502 14.9192 12.0484 15.0914 11.5216 15.0914C11.4709 15.0914 11.4169 15.0914 11.3663 15.088C10.3633 15.0239 9.43128 14.6322 8.73226 14.2979C6.82093 13.3726 5.14261 12.059 3.74795 10.3941C2.59642 9.00624 1.82648 7.72301 1.31657 6.34523C1.00252 5.50438 0.887703 4.84926 0.938356 4.23129C0.972126 3.83619 1.12409 3.50863 1.40437 3.22834L2.5559 2.07682C2.72136 1.92148 2.89696 1.83706 3.06919 1.83706C3.28193 1.83706 3.45415 1.96538 3.56222 2.07344C3.56559 2.07682 3.56897 2.0802 3.57235 2.08357C3.77834 2.27606 3.9742 2.47529 4.18019 2.68804C4.28487 2.7961 4.39294 2.90416 4.501 3.0156L5.42289 3.9375C5.78085 4.29545 5.78085 4.62638 5.42289 4.98434C5.32496 5.08227 5.23041 5.1802 5.13248 5.27475C4.84882 5.56516 4.57867 5.83532 4.28487 6.09872C4.27812 6.10547 4.27137 6.10885 4.26799 6.1156C3.97758 6.40602 4.03161 6.68968 4.09239 6.88216C4.09577 6.89229 4.09914 6.90242 4.10252 6.91255C4.34228 7.49338 4.67997 8.04044 5.19326 8.69218L5.19664 8.69556C6.12867 9.84371 7.11135 10.7386 8.19534 11.4241C8.33379 11.5119 8.47562 11.5828 8.6107 11.6504C8.73226 11.7111 8.84708 11.7685 8.94501 11.8293C8.95852 11.8361 8.97202 11.8462 8.98553 11.853C9.10035 11.9104 9.20841 11.9374 9.31985 11.9374C9.60013 11.9374 9.77573 11.7618 9.83314 11.7044L10.988 10.5495C11.1029 10.4347 11.2852 10.2962 11.498 10.2962C11.7073 10.2962 11.8795 10.4279 11.9842 10.5427C11.9876 10.5461 11.9876 10.5461 11.991 10.5495L13.8517 12.4102C14.1995 12.7546 14.1995 13.1092 13.855 13.4671Z" fill="white"/>
<path d="M8.64673 3.80573C9.53148 3.95431 10.3352 4.37305 10.9768 5.01466C11.6184 5.65627 12.0338 6.45998 12.1857 7.34473C12.2229 7.5676 12.4153 7.72294 12.6348 7.72294C12.6619 7.72294 12.6855 7.71957 12.7125 7.71619C12.9624 7.67567 13.1279 7.43928 13.0873 7.18939C12.905 6.11891 12.3985 5.14298 11.6252 4.36967C10.8518 3.59636 9.87592 3.08982 8.80545 2.90747C8.55556 2.86695 8.32255 3.03242 8.27865 3.27893C8.23475 3.52544 8.39684 3.76521 8.64673 3.80573Z" fill="white"/>
<path d="M15.9819 7.05794C15.6813 5.29519 14.8506 3.69116 13.5741 2.41469C12.2977 1.13822 10.6936 0.307495 8.93089 0.00695018C8.68437 -0.0369497 8.45137 0.131896 8.40747 0.37841C8.36694 0.628302 8.53241 0.861309 8.7823 0.905208C10.3559 1.17198 11.7911 1.91828 12.9325 3.0563C14.0739 4.1977 14.8168 5.63288 15.0836 7.20652C15.1208 7.4294 15.3132 7.58474 15.5327 7.58474C15.5598 7.58474 15.5834 7.58136 15.6104 7.57798C15.8569 7.54084 16.0258 7.30445 15.9819 7.05794Z" fill="white"/>
</svg>
