<svg width="16" height="16" viewBox="0 0 16 16" fill="none" xmlns="http://www.w3.org/2000/svg">
<path d="M12.6652 9.91125C12.3371 9.57018 11.9414 9.38783 11.522 9.38783C11.1061 9.38783 10.707 9.5668 10.3654 9.90787L9.29668 10.9716C9.20875 10.9243 9.12082 10.8804 9.03627 10.8365C8.91452 10.7757 8.79953 10.7183 8.70145 10.6575C7.70038 10.0227 6.79062 9.19534 5.91806 8.12486C5.49531 7.59131 5.21122 7.14218 5.00492 6.6863C5.28224 6.43303 5.53928 6.16963 5.78955 5.91636C5.88424 5.82181 5.97894 5.72388 6.07363 5.62933C6.78385 4.92018 6.78385 4.00166 6.07363 3.29251L5.15035 2.37061C5.0455 2.26593 4.93728 2.15786 4.83582 2.0498C4.6329 1.84044 4.41983 1.62431 4.2 1.4217C3.87195 1.09752 3.47964 0.925293 3.06703 0.925293C2.65443 0.925293 2.25535 1.09752 1.91715 1.4217C1.91377 1.42508 1.91377 1.42508 1.91039 1.42845L0.760506 2.58673C0.32761 3.01898 0.0807238 3.54577 0.0266118 4.15699C-0.0545563 5.14305 0.236296 6.06157 0.459508 6.66266C1.00739 8.13837 1.82584 9.50602 3.04674 10.9716C4.52806 12.7377 6.31037 14.1324 8.34634 15.1151C9.1242 15.4831 10.1625 15.9188 11.3225 15.9931C11.3935 15.9964 11.4679 15.9998 11.5356 15.9998C12.3168 15.9998 12.9729 15.7195 13.487 15.1623C13.4904 15.1556 13.4971 15.1522 13.5005 15.1455C13.6764 14.9327 13.8793 14.7402 14.0924 14.5342C14.2378 14.3958 14.3866 14.2506 14.532 14.0986C14.8668 13.7508 15.0427 13.3456 15.0427 12.9302C15.0427 12.5115 14.8635 12.1096 14.5219 11.7719L12.6652 9.91125ZM13.8759 13.4671C13.8725 13.4671 13.8725 13.4705 13.8759 13.4671C13.744 13.609 13.6087 13.7373 13.4633 13.8791C13.2435 14.0885 13.0203 14.308 12.8106 14.5545C12.469 14.9192 12.0665 15.0914 11.539 15.0914C11.4882 15.0914 11.4341 15.0914 11.3834 15.088C10.3789 15.0239 9.44549 14.6322 8.74542 14.2979C6.8312 13.3726 5.15035 12.059 3.75358 10.3941C2.60032 9.00624 1.82922 7.72301 1.31854 6.34523C1.00401 5.50438 0.889023 4.84926 0.939753 4.23129C0.973573 3.83619 1.12576 3.50863 1.40647 3.22834L2.55973 2.07682C2.72545 1.92148 2.90131 1.83706 3.0738 1.83706C3.28686 1.83706 3.45935 1.96538 3.56757 2.07344C3.57095 2.07682 3.57433 2.0802 3.57772 2.08357C3.78402 2.27606 3.98017 2.47529 4.18648 2.68804C4.29132 2.7961 4.39954 2.90416 4.50777 3.0156L5.43105 3.9375C5.78955 4.29545 5.78955 4.62638 5.43105 4.98434C5.33297 5.08227 5.23828 5.1802 5.1402 5.27475C4.85611 5.56516 4.58555 5.83532 4.29132 6.09872C4.28455 6.10547 4.27779 6.10885 4.27441 6.1156C3.98356 6.40602 4.03767 6.68968 4.09854 6.88216C4.10193 6.89229 4.10531 6.90242 4.10869 6.91255C4.34881 7.49338 4.68701 8.04044 5.20108 8.69218L5.20446 8.69556C6.13789 9.84371 7.12206 10.7386 8.20768 11.4241C8.34634 11.5119 8.48838 11.5828 8.62366 11.6504C8.74542 11.7111 8.8604 11.7685 8.95848 11.8293C8.97201 11.8361 8.98554 11.8462 8.99907 11.853C9.11405 11.9104 9.22228 11.9374 9.33388 11.9374C9.61459 11.9374 9.79046 11.7618 9.84795 11.7044L11.0046 10.5495C11.1196 10.4347 11.3022 10.2962 11.5153 10.2962C11.725 10.2962 11.8974 10.4279 12.0023 10.5427C12.0057 10.5461 12.0057 10.5461 12.009 10.5495L13.8725 12.4102C14.2209 12.7546 14.2209 13.1092 13.8759 13.4671Z" fill="#031D1E"/>
<path d="M8.65999 3.80573C9.54607 3.95431 10.351 4.37305 10.9936 5.01466C11.6361 5.65627 12.0521 6.45998 12.2043 7.34473C12.2415 7.5676 12.4343 7.72294 12.6541 7.72294C12.6812 7.72294 12.7048 7.71957 12.7319 7.71619C12.9822 7.67567 13.1479 7.43928 13.1073 7.18939C12.9247 6.11891 12.4174 5.14298 11.6429 4.36967C10.8684 3.59636 9.89104 3.08982 8.81895 2.90747C8.56868 2.86695 8.33532 3.03242 8.29136 3.27893C8.24739 3.52544 8.40973 3.76521 8.65999 3.80573Z" fill="#031D1E"/>
<path d="M16.006 7.05794C15.705 5.29519 14.873 3.69116 13.5946 2.41469C12.3162 1.13822 10.7098 0.307495 8.94438 0.00695018C8.6975 -0.0369497 8.46414 0.131896 8.42017 0.37841C8.37959 0.628302 8.54531 0.861309 8.79557 0.905208C10.3716 1.17198 11.8089 1.91828 12.9521 3.0563C14.0952 4.1977 14.8392 5.63288 15.1064 7.20652C15.1436 7.4294 15.3364 7.58474 15.5562 7.58474C15.5833 7.58474 15.6069 7.58136 15.634 7.57798C15.8809 7.54084 16.05 7.30445 16.006 7.05794Z" fill="#031D1E"/>
</svg>
