<svg width="50" height="50" viewBox="0 0 50 50" fill="none" xmlns="http://www.w3.org/2000/svg">
<path d="M39.405 0H37.1085C36.6762 0 36.3256 0.350391 36.3256 0.78291C36.3256 1.21533 36.6761 1.56582 37.1085 1.56582H39.405C44.1535 1.56582 48.0167 5.4291 48.0167 10.1775V11.6911H44.6242C44.1919 11.6911 43.8413 12.0415 43.8413 12.474C43.8413 12.9065 44.1918 13.2569 44.6242 13.2569H48.0167V21.712H43.707L41.4951 20.2823L43.4819 18.3978C43.9143 17.9876 43.7295 17.2393 43.1573 17.0768L40.5782 16.3436L42.0221 14.0843C42.343 13.5821 41.9833 12.9007 41.3891 12.8802L38.7104 12.7888L39.571 10.2506C39.7619 9.68711 39.2512 9.11094 38.6689 9.23291L36.0461 9.78291L36.2775 7.11299C36.3289 6.5208 35.6958 6.08184 35.1589 6.33965L32.742 7.49941L32.3272 4.85078C32.2353 4.26338 31.5152 3.98848 31.0554 4.36826L28.9878 6.07549L27.9473 3.60449C27.7167 3.05664 26.952 2.96328 26.5971 3.4417L25 5.59326L23.4031 3.4416C23.0481 2.96328 22.2836 3.05635 22.0529 3.60439L21.0124 6.07539L18.945 4.36816C18.4853 3.98838 17.765 4.26348 17.6731 4.85078L17.2584 7.49932L14.8415 6.33936C14.3044 6.08203 13.6715 6.52031 13.7229 7.1127L13.9543 9.78262L11.3314 9.23262C10.7492 9.11094 10.2385 9.68672 10.4294 10.2503L11.2899 12.7885L8.61113 12.8799C8.01699 12.9003 7.65713 13.5816 7.97813 14.0839L9.42197 16.3434L6.84287 17.0765C6.27061 17.239 6.08574 17.9873 6.51826 18.3975L8.50508 20.282L6.09922 21.8371C5.80645 22.0264 5.67295 22.3979 5.77783 22.7302C5.8794 23.0524 6.18643 23.2775 6.52422 23.2775H48.0169V25.4174C48.0169 28.4391 45.5585 30.8976 42.5367 30.8976H33.3509C30.4878 30.8976 28.02 32.6149 26.9187 35.0729H19.5722C19.1398 35.0729 18.7893 35.4233 18.7893 35.8559C18.7893 36.2883 19.1397 36.6388 19.5722 36.6388H26.428C26.3483 37.0619 26.305 37.4977 26.305 37.9436V39.8225C26.305 44.5709 22.4418 48.4342 17.6933 48.4342H1.9833V44.9896H7.0459C7.47822 44.9896 7.82881 44.6392 7.82881 44.2066C7.82881 43.7742 7.47832 43.4237 7.0459 43.4237H1.9833V29.1231H9.55117C9.9835 29.1231 10.3341 28.7728 10.3341 28.3402C10.3341 27.9078 9.98359 27.5573 9.55117 27.5573H1.9833V18.3193C1.9833 17.8869 1.63281 17.5364 1.20039 17.5364C0.768066 17.5364 0.41748 17.8868 0.41748 18.3193V49.2171C0.41748 49.6495 0.767969 50 1.20039 50H17.6931C23.305 50 27.8705 45.4345 27.8705 39.8226V37.9437C27.8705 34.922 30.3289 32.4635 33.3507 32.4635H42.5365C46.4217 32.4635 49.5824 29.3027 49.5824 25.4176V10.1774C49.5824 4.56553 45.0169 0 39.405 0ZM22.9289 21.7119C23.1686 20.7922 24.0063 20.1114 25 20.1114C25.9938 20.1114 26.8314 20.7922 27.0711 21.7119H22.9289ZM28.666 21.7119C28.404 19.9234 26.8602 18.5456 25 18.5456C23.1398 18.5456 21.596 19.9233 21.334 21.7119H17.2418C17.5199 17.6745 20.8933 14.4746 24.9999 14.4746C29.1065 14.4746 32.48 17.6745 32.758 21.7119H28.666ZM39.4545 20.4716C39.4767 20.7106 39.6073 20.9263 39.809 21.0566L40.8226 21.7117H34.3265C34.0461 16.8104 29.9704 12.9087 25.0001 12.9087C20.0298 12.9087 15.9541 16.8104 15.6737 21.7118H9.17734L10.1909 21.0567C10.6098 20.7859 10.6669 20.1748 10.3047 19.8313L8.59238 18.207L10.8624 17.5617C11.358 17.4208 11.5862 16.8225 11.308 16.3872L10.0369 14.3979L12.3963 14.3175C12.9118 14.2998 13.2769 13.773 13.111 13.2837L12.3525 11.0467L14.6646 11.5314C15.1702 11.6369 15.6497 11.2121 15.6052 10.6977L15.4012 8.34482L17.5302 9.3666C17.9962 9.58965 18.5626 9.29131 18.6424 8.78184L19.0074 6.45029L20.8271 7.95293C21.2252 8.28184 21.8471 8.12822 22.0471 7.65303L22.9635 5.47666L24.3713 7.37353C24.6791 7.78838 25.3208 7.78848 25.6286 7.37353L27.0365 5.47656L27.953 7.65303C28.153 8.12832 28.7747 8.28164 29.173 7.95293L30.9927 6.45029L31.3578 8.78184C31.4375 9.29092 32.0042 9.59033 32.47 9.3666L34.599 8.34492L34.395 10.6979C34.3505 11.2125 34.83 11.637 35.3356 11.5316L37.6476 11.0469L36.8891 13.2839C36.7232 13.7732 37.0882 14.3001 37.6038 14.3177L39.9631 14.3981L38.692 16.3871C38.4138 16.8224 38.642 17.4208 39.1376 17.5617L41.4076 18.2071L39.6952 19.8313C39.5211 19.9965 39.4322 20.2324 39.4545 20.4716Z" fill="black"/>
<path d="M32.9331 0H1.20029C0.767969 0 0.41748 0.350391 0.41748 0.78291V14.144C0.41748 14.5765 0.767969 14.927 1.20039 14.927C1.63271 14.927 1.9833 14.5766 1.9833 14.144V6.57617H10.3862C10.8186 6.57617 11.1691 6.22578 11.1691 5.79326C11.1691 5.36084 10.8187 5.01035 10.3862 5.01035H1.9832V1.56572H32.9331C33.3654 1.56572 33.716 1.21533 33.716 0.782812C33.716 0.350391 33.3654 0 32.9331 0Z" fill="black"/>
<path d="M20.4072 43.4238H11.2214C10.7891 43.4238 10.4385 43.7742 10.4385 44.2067C10.4385 44.6392 10.789 44.9896 11.2214 44.9896H20.4072C20.8396 44.9896 21.1901 44.6393 21.1901 44.2067C21.19 43.7742 20.8396 43.4238 20.4072 43.4238Z" fill="black"/>
<path d="M15.3969 35.073H7.04609C6.61377 35.073 6.26318 35.4234 6.26318 35.8559C6.26318 36.2883 6.61367 36.6388 7.04609 36.6388H15.3968C15.8291 36.6388 16.1797 36.2884 16.1797 35.8559C16.1798 35.4235 15.8292 35.073 15.3969 35.073Z" fill="black"/>
<path d="M30.4281 27.5574H13.7268C13.2944 27.5574 12.9438 27.9078 12.9438 28.3403C12.9438 28.7727 13.2943 29.1232 13.7268 29.1232H30.4282C30.8605 29.1232 31.2111 28.7728 31.2111 28.3403C31.211 27.9078 30.8605 27.5574 30.4281 27.5574Z" fill="black"/>
<path d="M41.2839 27.5574H33.7683C33.3359 27.5574 32.9854 27.9078 32.9854 28.3403C32.9854 28.7727 33.3358 29.1232 33.7683 29.1232H41.2839C41.7162 29.1232 42.0668 28.7728 42.0668 28.3403C42.0668 27.9078 41.7163 27.5574 41.2839 27.5574Z" fill="black"/>
<path d="M44.6241 5.01038H37.9436C37.5112 5.01038 37.1606 5.36077 37.1606 5.79329C37.1606 6.22571 37.5111 6.5762 37.9436 6.5762H44.6241C45.0565 6.5762 45.407 6.22581 45.407 5.79329C45.407 5.36077 45.0565 5.01038 44.6241 5.01038Z" fill="black"/>
<path d="M8.71612 10.0209H4.54072C4.1084 10.0209 3.75781 10.3713 3.75781 10.8038C3.75781 11.2363 4.1083 11.5867 4.54072 11.5867H8.71612C9.14844 11.5867 9.49903 11.2363 9.49903 10.8038C9.49903 10.3713 9.14844 10.0209 8.71612 10.0209Z" fill="black"/>
</svg>
