<svg width="50" height="50" viewBox="0 0 50 50" fill="none" xmlns="http://www.w3.org/2000/svg">
<path d="M21.2815 20.7147C20.6527 20.7147 20.1411 21.2263 20.1411 21.8552C20.1411 22.484 20.6527 22.9956 21.2815 22.9956C21.9104 22.9956 22.4221 22.484 22.4221 21.8552C22.4221 21.2262 21.9104 20.7147 21.2815 20.7147Z" fill="black"/>
<path d="M28.7235 20.7147C28.0947 20.7147 27.583 21.2263 27.583 21.8552C27.583 22.484 28.0947 22.9956 28.7235 22.9956C29.3523 22.9956 29.8639 22.484 29.864 21.8552C29.864 21.2262 29.3523 20.7147 28.7235 20.7147Z" fill="black"/>
<path d="M25.9953 25.5219H24.0013C23.4379 25.5219 22.981 25.9787 22.981 26.5422C22.981 27.6545 23.8858 28.5595 24.9982 28.5595C26.1106 28.5595 27.0156 27.6546 27.0157 26.5422C27.0155 25.9787 26.5587 25.5219 25.9953 25.5219Z" fill="black"/>
<path d="M25.0156 41.0466H25.0022C24.4389 41.0466 23.9819 41.5034 23.9819 42.0669C23.9819 42.6304 24.4389 43.0872 25.0022 43.0872H25.0156C25.579 43.0872 26.0359 42.6305 26.0359 42.0669C26.0359 41.5033 25.5791 41.0466 25.0156 41.0466Z" fill="black"/>
<path d="M25.0024 41.0466H24.9891C24.4257 41.0466 23.9688 41.5034 23.9688 42.0669C23.9688 42.6304 24.4257 43.0872 24.9891 43.0872H25.0024C25.5658 43.0872 26.0227 42.6305 26.0227 42.0669C26.0227 41.5033 25.5658 41.0466 25.0024 41.0466Z" fill="black"/>
<path d="M45.6656 47.9567H40.005V41.0579C40.005 39.0692 38.8047 37.1802 37.0862 36.464L30.5199 33.728C30.2863 33.6307 30.1354 33.4044 30.1354 33.1515V31.5675L32.8178 30.0341C32.8368 30.0232 32.8555 30.0117 32.8737 29.9997C34.1981 29.125 35.069 27.5565 35.2029 25.8043C35.205 25.7785 35.2059 25.7524 35.2059 25.7266V24.8795C36.5309 24.4485 37.4912 23.2016 37.4912 21.7348C37.4912 20.2679 36.5308 19.0211 35.2059 18.59V17.764H36.2419C37.0049 17.764 37.6256 17.1432 37.6256 16.3804V14.3457C37.6256 13.7574 37.2565 13.2537 36.7377 13.0539C36.3801 10.4699 35.1714 8.07723 33.2811 6.24305C31.8868 4.89022 30.1949 3.91102 28.3483 3.38163V2.71522C28.3483 1.92723 27.7275 1.28632 26.9646 1.28632H23.0406C22.2776 1.28632 21.657 1.92733 21.657 2.71522V3.43915C19.8862 3.98065 18.2609 4.94012 16.9182 6.24315C15.0426 8.06307 13.8381 10.4326 13.47 12.9936C12.8476 13.1286 12.3798 13.6837 12.3798 14.346V16.3807C12.3798 17.1436 13.0006 17.7642 13.7635 17.7642H14.7995V18.5903C13.4745 19.0213 12.5142 20.2682 12.5142 21.735C12.5142 23.2019 13.4746 24.4487 14.7995 24.8798V25.7268C14.7995 25.7527 14.8005 25.7788 14.8024 25.8046C14.9359 27.5497 15.8126 29.1181 17.148 30C17.1659 30.0118 17.1842 30.023 17.2027 30.0338L19.8698 31.563V33.1518C19.8698 33.4048 19.7189 33.6311 19.4854 33.7284L12.9189 36.4643C11.2005 37.1804 10.0003 39.0694 10.0003 41.0583V47.9571H4.33965C3.77627 47.9571 3.31934 48.414 3.31934 48.9774C3.31934 49.5409 3.77627 49.9977 4.33965 49.9977H45.6656C46.229 49.9977 46.6859 49.5409 46.6859 48.9774C46.6859 48.414 46.2291 47.9567 45.6656 47.9567ZM14.4205 15.7236V15.0025C14.9462 14.9884 15.3771 14.5755 15.4108 14.0476C15.5645 11.6426 16.6044 9.3911 18.3393 7.7078C19.2965 6.77899 20.4266 6.06161 21.6572 5.59501V13.1321C21.6572 13.6956 22.1142 14.1524 22.6775 14.1524C23.2409 14.1524 23.6978 13.6956 23.6978 13.1321V3.32694H26.3079L26.3242 13.132C26.3242 13.6955 26.7812 14.1523 27.3445 14.1523C27.9079 14.1523 28.3648 13.6955 28.3648 13.132V5.53026C29.6639 5.99354 30.8553 6.7328 31.8602 7.7077C33.595 9.3911 34.6349 11.6427 34.7886 14.0475C34.818 14.5089 35.1509 14.8824 35.5852 14.9786V15.7235H14.4205V15.7236ZM18.2482 28.2806C17.4693 27.7531 16.9329 26.7642 16.8402 25.6854V24.0204C16.8402 23.4569 16.3833 23.0001 15.8199 23.0001C15.1224 23.0001 14.5549 22.4325 14.5549 21.735C14.5549 21.0376 15.1225 20.47 15.8199 20.47C16.3833 20.47 16.8402 20.0132 16.8402 19.4497V17.7644H33.1651V19.4497C33.1651 20.0132 33.6221 20.47 34.1854 20.47C34.883 20.47 35.4505 21.0376 35.4505 21.735C35.4505 22.4325 34.8829 23.0001 34.1854 23.0001C33.6221 23.0001 33.1651 23.4569 33.1651 24.0204V25.6856C33.0713 26.7869 32.5538 27.7522 31.774 28.2803L26.28 31.4211C26.2609 31.4319 26.2424 31.4434 26.224 31.4555C25.459 31.9606 24.5459 31.9606 23.7809 31.4555C23.763 31.4436 23.7447 31.4324 23.7262 31.4217L18.2482 28.2806ZM28.0967 33.2012C27.3652 34.1772 26.23 34.7519 24.9977 34.7519C23.7714 34.7519 22.64 34.1817 21.9083 33.2134C21.9087 33.1927 21.9105 33.1723 21.9105 33.1515V32.7328L22.6851 33.1768C23.4015 33.6422 24.202 33.8749 25.0025 33.8749C25.8029 33.8749 26.6033 33.6423 27.3194 33.1772L28.0947 32.734V33.1514C28.0947 33.1682 28.0964 33.1846 28.0967 33.2012ZM14.2385 47.9567H12.041V41.0579C12.041 39.9078 12.756 38.7427 13.7039 38.3476L14.2385 38.1249V47.9567ZM16.2791 47.9567V37.2748L18.1667 36.4884V42.0668C18.1667 42.6303 18.6236 43.0871 19.187 43.0871H21.6886C22.252 43.0871 22.7089 42.6303 22.7089 42.0668C22.7089 41.5033 22.252 41.0465 21.6886 41.0465H20.2072V35.6381L20.2704 35.6117C20.5227 35.5066 20.7521 35.366 20.9544 35.1974C22.0364 36.2139 23.4692 36.7926 24.9977 36.7926C26.5294 36.7926 27.9637 36.2123 29.046 35.1931C29.2495 35.3636 29.4806 35.5057 29.7348 35.6118L29.7979 35.6382V41.0466H28.3167C27.7533 41.0466 27.2964 41.5034 27.2964 42.0669C27.2964 42.6304 27.7533 43.0872 28.3167 43.0872H30.8183C31.3816 43.0872 31.8386 42.6305 31.8386 42.0669V36.4885L33.7262 37.2749V47.9568H16.2791V47.9567ZM37.9644 47.9567H35.7669V38.125L36.3013 38.3476C37.2494 38.7427 37.9644 39.9079 37.9644 41.0579V47.9567Z" fill="black"/>
<path d="M48.9747 26.2158H38.1595C37.5961 26.2158 37.1392 26.6726 37.1392 27.2361V33.5599C37.1392 34.816 38.161 35.8378 39.417 35.8378H41.1603V42.8802C41.1603 44.2305 42.2588 45.3289 43.609 45.3289C44.9592 45.3289 46.0577 44.2305 46.0577 42.8802V35.8378H47.7172C48.9732 35.8378 49.995 34.816 49.995 33.5599V27.2361C49.995 26.6725 49.5381 26.2158 48.9747 26.2158ZM44.0171 42.8803C44.0171 43.1015 43.8302 43.2884 43.609 43.2884C43.3878 43.2884 43.2009 43.1015 43.2009 42.8803V35.8379H44.0171V42.8803ZM47.9544 33.5599C47.9544 33.6885 47.8458 33.7972 47.7172 33.7972H39.417C39.2884 33.7972 39.1798 33.6885 39.1798 33.5599V31.3045H47.9544V33.5599ZM47.9544 29.2639H39.1798V28.2564H47.9544V29.2639Z" fill="black"/>
<path d="M28.5869 45.3722H28.5735C28.0102 45.3722 27.5532 45.829 27.5532 46.3925C27.5532 46.956 28.0102 47.4128 28.5735 47.4128H28.5869C29.1503 47.4128 29.6072 46.9561 29.6072 46.3925C29.6072 45.8289 29.1504 45.3722 28.5869 45.3722Z" fill="black"/>
<path d="M25.2727 45.3721H21.4446C20.8812 45.3721 20.4243 45.8288 20.4243 46.3924C20.4243 46.9559 20.8812 47.4127 21.4446 47.4127H25.2726C25.836 47.4127 26.293 46.9559 26.293 46.3924C26.293 45.8288 25.8361 45.3721 25.2727 45.3721Z" fill="black"/>
</svg>
