<svg width="50" height="50" viewBox="0 0 50 50" fill="none" xmlns="http://www.w3.org/2000/svg">
<g clip-path="url(#clip0)">
<path d="M41.2938 30.3819C44.0614 28.1046 45.7464 24.7141 45.7464 21.058C45.7464 17.9024 44.5924 15.0429 42.6623 12.9187V1.06209C42.6623 0.418709 42.2334 0 41.6002 0H4.46785C3.82447 0 3.40576 0.428922 3.40576 1.06209V48.9379C3.40576 49.5813 3.83468 50 4.46785 50H41.59C42.121 50 42.6521 49.5711 42.6521 48.9379V42.9534L46.5941 41.5952L41.2938 30.3819ZM43.7244 21.058C43.7142 25 41.4879 28.5131 37.9748 30.1062C36.6982 30.6373 35.3196 30.9538 33.8286 30.9538C28.4058 30.9538 23.9327 26.4808 23.9327 21.058C23.9327 15.6352 28.4058 11.1622 33.8286 11.1622C39.2514 11.1622 43.6121 15.5229 43.7244 21.058ZM29.8049 32.3019L27.65 41.7994L23.5038 40.3186L27.8134 31.4032C28.4466 31.7606 29.1104 32.067 29.8049 32.3019ZM40.5279 47.8758H5.52995V2.12418H40.5279V11.0703C38.6284 9.7835 36.3306 9.03799 33.8286 9.03799C31.0508 9.03799 28.5079 9.96732 26.4858 11.5298V11.4788H12.3314V13.6029H24.3821C22.7685 15.6556 21.7983 18.2496 21.7983 21.0478C21.7983 22.0384 21.9209 22.9984 22.1455 23.9175H12.3314V26.0417H22.8911C23.6263 27.6348 24.6987 29.0237 26.0263 30.1471L23.0851 36.3664H12.3314V38.4906H22.0843L20.6239 41.5748L29.2432 44.5568L31.929 32.8125C32.5418 32.9044 33.175 32.9555 33.8183 32.9555C34.3085 32.9555 34.8089 32.9248 35.2991 32.8738L37.9748 44.5466L40.5279 43.6683V47.8758ZM39.5679 41.8096L37.454 32.4755C37.8931 32.3529 39.2514 31.7606 39.5169 31.6074L43.7142 40.3186L39.5679 41.8096Z" fill="black"/>
<path d="M31.2651 17.4531L25.73 18.3007L29.7741 22.2325L28.8141 27.7676L33.8182 25.3166L38.71 27.8697L37.7602 22.3448L41.692 18.3007L36.1568 17.4531L33.7161 12.449L31.2651 17.4531ZM34.8803 19.4751L37.2189 19.7917L35.5135 21.4972L35.9526 23.8256L33.8284 22.7635L31.7042 23.9379L32.1332 21.487L30.4175 19.7917L32.7561 19.4751L33.8182 17.3509L34.8803 19.4751Z" fill="black"/>
</g>
<defs>
<clipPath id="clip0">
<rect width="50" height="50" fill="white"/>
</clipPath>
</defs>
</svg>
