<svg width="42" height="42" viewBox="0 0 42 42" fill="none" xmlns="http://www.w3.org/2000/svg">
<path d="M35.875 12.25H6.125C5.66087 12.25 5.21575 12.0656 4.88756 11.7374C4.55937 11.4092 4.375 10.9641 4.375 10.5C4.375 10.0359 4.55937 9.59075 4.88756 9.26256C5.21575 8.93437 5.66087 8.75 6.125 8.75H35.875C36.3391 8.75 36.7842 8.93437 37.1124 9.26256C37.4406 9.59075 37.625 10.0359 37.625 10.5C37.625 10.9641 37.4406 11.4092 37.1124 11.7374C36.7842 12.0656 36.3391 12.25 35.875 12.25Z" fill="white"/>
<path d="M35.875 22.75H6.125C5.66087 22.75 5.21575 22.5656 4.88756 22.2374C4.55937 21.9092 4.375 21.4641 4.375 21C4.375 20.5359 4.55937 20.0908 4.88756 19.7626C5.21575 19.4344 5.66087 19.25 6.125 19.25H35.875C36.3391 19.25 36.7842 19.4344 37.1124 19.7626C37.4406 20.0908 37.625 20.5359 37.625 21C37.625 21.4641 37.4406 21.9092 37.1124 22.2374C36.7842 22.5656 36.3391 22.75 35.875 22.75Z" fill="white"/>
<path d="M35.875 33.25H6.125C5.66087 33.25 5.21575 33.0656 4.88756 32.7374C4.55937 32.4093 4.375 31.9641 4.375 31.5C4.375 31.0359 4.55937 30.5908 4.88756 30.2626C5.21575 29.9344 5.66087 29.75 6.125 29.75H35.875C36.3391 29.75 36.7842 29.9344 37.1124 30.2626C37.4406 30.5908 37.625 31.0359 37.625 31.5C37.625 31.9641 37.4406 32.4093 37.1124 32.7374C36.7842 33.0656 36.3391 33.25 35.875 33.25Z" fill="white"/>
</svg>
