<svg width="100" height="100" viewBox="0 0 100 100" fill="none" xmlns="http://www.w3.org/2000/svg">
<g clip-path="url(#clip0)">
<path d="M67.8447 40.4887L62.8448 35.4888C62.1931 34.8371 61.1398 34.8371 60.4882 35.4888L43.3335 52.6435L37.8453 47.1554C37.1936 46.5036 36.1403 46.5036 35.4887 47.1554L30.4888 52.1553C29.8371 52.8068 29.8371 53.8603 30.4888 54.5119L42.1552 66.1782C42.4802 66.505 42.9069 66.6665 43.3335 66.6665C43.7602 66.6665 44.1868 66.5032 44.5118 66.1782L67.8447 42.8453C68.4965 42.1938 68.4965 41.1405 67.8447 40.4887ZM43.3335 62.6433L34.0237 53.3336L36.667 50.6903L42.1552 56.1784C42.8069 56.8302 43.8602 56.8302 44.5118 56.1784L61.6665 39.0237L64.3098 41.667L43.3335 62.6433Z" fill="black"/>
<path d="M99.6123 58.9339L92.1691 50.0007L99.6123 41.0675C100.027 40.5708 100.116 39.8792 99.8424 39.2943C99.5674 38.7093 98.9791 38.3343 98.3324 38.3343H76.4444L74.9827 28.0996C74.8661 27.2779 74.1628 26.668 73.3327 26.668H60.6029C58.6397 25.0313 51.0664 18.7214 51.0664 18.7214C50.448 18.2048 49.5514 18.2048 48.933 18.7214L39.3965 26.668H26.6666C25.8366 26.668 25.135 27.2779 25.0167 28.098L23.555 38.3345H1.66752C1.02085 38.3345 0.432578 38.7095 0.157583 39.2945C-0.117412 39.8812 -0.0273742 40.5728 0.387657 41.0677L7.83087 50.0009L0.387657 58.9341C-0.0273742 59.4308 -0.115654 60.1224 0.157583 60.7073C0.432578 61.294 1.02085 61.6673 1.66752 61.6673H23.5554C24.0003 64.7756 25.0186 71.9038 25.0186 71.9038C25.1352 72.7255 25.8385 73.3338 26.6668 73.3338H39.3967L48.9332 81.2804C49.2432 81.5387 49.6215 81.6671 49.9998 81.6671C50.3781 81.6671 50.7582 81.5387 51.0664 81.2804L60.6011 73.3338C63.1911 73.3338 73.3359 73.3405 73.3325 73.3338C74.1626 73.3338 74.8642 72.7239 74.9825 71.9038C74.9825 71.9038 76.0008 64.7756 76.4458 61.6673H98.3321C98.9787 61.6673 99.567 61.2923 99.842 60.7073C100.117 60.1204 100.027 59.4288 99.6123 58.9339ZM5.22584 58.3339L11.2808 51.0675C11.7958 50.4491 11.7958 49.5509 11.2808 48.9341L5.22584 41.6675H21.4421L15.3872 48.9339C14.8721 49.5523 14.8721 50.4505 15.3872 51.0673L21.4421 58.3337H5.22584V58.3339ZM73.7212 58.9322C73.6396 59.0304 73.5679 59.1388 73.5112 59.2538C73.3946 59.4872 73.3896 59.4972 71.8896 70.0003C59.6082 70.0003 59.5965 70.007 59.2549 70.1771C59.1398 70.2355 59.0316 70.3054 58.9332 70.387L50 77.8302L41.0668 70.387C40.7685 70.137 40.39 70.0003 40.0002 70.0003H28.1121C26.6122 59.4972 26.6071 59.4872 26.4905 59.2538C26.4321 59.1388 26.3622 59.0306 26.2805 58.9322L18.8373 50.0007L26.2805 41.0675C26.479 40.8292 26.6073 40.5425 26.6504 40.2358L28.1121 30.0011H40.0002C40.3902 30.0011 40.7668 29.8644 41.0668 29.6144L50 22.1712C59.0799 29.7376 59.0865 29.7409 59.2549 29.8261C59.4865 29.9411 59.7416 30.0011 59.9998 30.0011H71.8878L73.3495 40.2376C73.3929 40.5442 73.5212 40.831 73.7194 41.0692L81.1627 50.0007L73.7212 58.9322ZM78.5576 58.3339L84.6126 51.0675C85.1276 50.4491 85.1276 49.5509 84.6126 48.9341L78.5576 41.6677H94.7739L88.719 48.9341C88.2039 49.5525 88.2039 50.4507 88.719 51.0675L94.7739 58.3339H78.5576Z" fill="black"/>
</g>
<defs>
<clipPath id="clip0">
<rect width="100" height="100" fill="white"/>
</clipPath>
</defs>
</svg>
