<svg width="50" height="50" viewBox="0 0 50 50" fill="none" xmlns="http://www.w3.org/2000/svg">
<path d="M33.59 30.5C32.9025 29.9267 31.8534 29.4359 30.3842 28.9967V24.155C30.7209 24.2333 31.0092 24.355 31.24 24.5208C31.6992 24.865 31.9384 25.3725 31.9709 26.0541C31.9709 26.4617 32.1025 26.8008 32.365 27.0624C32.8384 27.5332 33.7167 27.5116 34.1225 27.0575C34.3792 26.7966 34.5092 26.4566 34.5092 26.0541C34.5092 24.7725 34.0625 23.72 33.1775 22.9192C32.4442 22.2701 31.5051 21.8692 30.3834 21.7326V21.1417C30.3834 20.4484 29.9268 19.9993 29.22 19.9993C28.5267 19.9993 28.0783 20.4484 28.0783 21.1417V21.7276C26.9517 21.8568 25.9934 22.2576 25.2258 22.9142C24.2258 23.7859 23.7191 24.9475 23.7191 26.3734C23.7191 27.6208 24.1783 28.6417 25.08 29.4083C25.7725 30.0041 26.7533 30.47 28.0783 30.8267V36.0633C27.5024 35.9416 27.0392 35.7358 26.7 35.4558C26.1042 34.9508 25.82 34.2008 25.8316 33.1583C25.8316 32.7583 25.7083 32.4208 25.4858 32.1992C25.0475 31.7083 24.1441 31.7234 23.7475 32.175C23.5024 32.4192 23.3774 32.7484 23.3774 33.1592C23.3774 35.0609 23.9658 36.4892 25.1308 37.4101C25.8475 37.9493 26.8374 38.311 28.0774 38.4868V39.4976C28.0774 40.2035 28.5258 40.6601 29.2191 40.6601C29.9258 40.6601 30.3825 40.2035 30.3825 39.4976V38.5084C31.5608 38.3276 32.575 37.8785 33.4025 37.1709C34.4625 36.2626 35 35.0834 35 33.6693C35 32.3333 34.525 31.2667 33.59 30.5ZM28.08 28.335C27.4991 28.1225 27.0658 27.8708 26.7875 27.5883C26.4467 27.2367 26.2809 26.7925 26.2809 26.2258C26.2809 25.535 26.5275 25.0275 27.0559 24.6317C27.35 24.4117 27.6934 24.2534 28.08 24.1534V28.335ZM31.5391 35.4958C31.2033 35.745 30.8167 35.9284 30.3842 36.045V31.4992C31.2691 31.7775 31.6842 32.0341 31.8792 32.2117C32.2367 32.5267 32.4176 33.0617 32.4176 33.7958C32.4183 34.5267 32.14 35.0659 31.5391 35.4958Z" fill="white"/>
<path d="M5 0V45H40V0H5ZM37.5 42.5H7.5V2.5H37.5V42.5Z" fill="white"/>
<path d="M42.5 5V47.5H10V50H45V5H42.5Z" fill="white"/>
<path d="M35 5H10V7.5H35V5Z" fill="white"/>
<path d="M17.5 15H10V17.5H17.5V15Z" fill="white"/>
<path d="M17.5 35H10V37.5H17.5V35Z" fill="white"/>
<path d="M22.5 10H10V12.5H22.5V10Z" fill="white"/>
<path d="M35 10H25V12.5H35V10Z" fill="white"/>
</svg>
