<svg width="65" height="65" viewBox="0 0 65 65" fill="none" xmlns="http://www.w3.org/2000/svg">
<g clip-path="url(#clip0)">
<path d="M44.0991 26.3177L40.8491 23.0677C40.4255 22.6441 39.7408 22.6441 39.3173 23.0677L28.1668 34.2183L24.5994 30.651C24.1758 30.2274 23.4912 30.2274 23.0677 30.651L19.8177 33.9009C19.3941 34.3244 19.3941 35.0092 19.8177 35.4327L27.4009 43.0159C27.6121 43.2282 27.8895 43.3332 28.1668 43.3332C28.4441 43.3332 28.7214 43.2271 28.9327 43.0159L44.0991 27.8494C44.5227 27.4259 44.5227 26.7413 44.0991 26.3177ZM28.1668 40.7182L22.1154 34.6668L23.8336 32.9487L27.4009 36.516C27.8245 36.9396 28.5091 36.9396 28.9327 36.516L40.0832 25.3654L41.8014 27.0836L28.1668 40.7182Z" fill="white"/>
<path d="M64.748 38.3068L59.9099 32.5002L64.748 26.6936C65.0178 26.3708 65.0752 25.9213 64.8976 25.541C64.7188 25.1608 64.3364 24.9171 63.9161 24.9171H49.6889L48.7388 18.2645C48.663 17.7304 48.2058 17.3339 47.6663 17.3339H39.3919C38.1158 16.2701 33.1931 12.1687 33.1931 12.1687C32.7912 11.8329 32.2084 11.8329 31.8065 12.1687L25.6077 17.3339H17.3333C16.7938 17.3339 16.3378 17.7304 16.2608 18.2635L15.3107 24.9172H1.08388C0.663551 24.9172 0.281176 25.161 0.102429 25.5412C-0.0763175 25.9225 -0.0177932 26.3721 0.251977 26.6938L5.09007 32.5004L0.251977 38.3069C-0.0177932 38.6298 -0.075175 39.0793 0.102429 39.4595C0.281176 39.8409 0.663551 40.0835 1.08388 40.0835H15.311C15.6002 42.1039 16.2621 46.7372 16.2621 46.7372C16.3379 47.2713 16.7951 47.6668 17.3334 47.6668H25.6078L31.8066 52.832C32.0081 52.9999 32.254 53.0834 32.4999 53.0834C32.7458 53.0834 32.9928 52.9999 33.1931 52.832L39.3907 47.6668C41.0742 47.6668 47.6683 47.6711 47.6662 47.6668C48.2057 47.6668 48.6617 47.2703 48.7386 46.7372C48.7386 46.7372 49.4006 42.1039 49.6898 40.0835H63.9158C64.3362 40.0835 64.7186 39.8397 64.8973 39.4595C65.0763 39.078 65.0178 38.6285 64.748 38.3068ZM3.3968 37.9168L7.33252 33.1936C7.66729 32.7917 7.66729 32.2079 7.33252 31.8069L3.3968 27.0836H13.9374L10.0017 31.8068C9.66689 32.2087 9.66689 32.7926 10.0017 33.1935L13.9374 37.9167H3.3968V37.9168ZM47.9188 38.3057C47.8657 38.3695 47.8191 38.44 47.7823 38.5148C47.7065 38.6665 47.7032 38.6729 46.7282 45.5C38.7453 45.5 38.7377 45.5043 38.5157 45.6149C38.4409 45.6528 38.3706 45.6983 38.3066 45.7513L32.5 50.5894L26.6934 45.7513C26.4995 45.5888 26.2535 45.5 26.0001 45.5H18.2729C17.2979 38.6729 17.2946 38.6665 17.2188 38.5148C17.1809 38.44 17.1354 38.3697 17.0823 38.3057L12.2442 32.5002L17.0823 26.6936C17.2113 26.5388 17.2947 26.3524 17.3228 26.1531L18.2729 19.5005H26.0001C26.2536 19.5005 26.4984 19.4116 26.6934 19.2491L32.5 14.411C38.4019 19.3292 38.4062 19.3314 38.5157 19.3867C38.6662 19.4615 38.832 19.5005 38.9999 19.5005H46.7271L47.6772 26.1542C47.7054 26.3535 47.7888 26.5399 47.9176 26.6948L52.7557 32.5002L47.9188 38.3057ZM51.0625 37.9168L54.9982 33.1936C55.333 32.7917 55.333 32.2079 54.9982 31.8069L51.0625 27.0838H61.6031L57.6673 31.8069C57.3326 32.2089 57.3326 32.7927 57.6673 33.1936L61.6031 37.9168H51.0625Z" fill="white"/>
</g>
<defs>
<clipPath id="clip0">
<rect width="65" height="65" fill="white"/>
</clipPath>
</defs>
</svg>
