<svg width="50" height="50" viewBox="0 0 50 50" fill="none" xmlns="http://www.w3.org/2000/svg">
<g clip-path="url(#clip0)">
<path d="M48.6432 25.2144C48.4932 25.1851 45.8028 24.6645 42.1927 24.3983C42.2102 24.0667 42.2195 23.7328 42.2195 23.3966C42.2195 13.0117 33.7706 4.56287 23.3857 4.56287C13.0006 4.56287 4.55167 13.0117 4.55167 23.3966C4.55167 25.5862 4.92862 27.6889 5.6185 29.6453C3.2105 29.848 1.46032 30.1866 1.35683 30.2069L0 30.473L0.590961 31.723C0.773146 32.1085 5.11611 41.194 10.5559 43.9425C12.519 44.9342 14.355 45.4371 16.0132 45.4373C16.0135 45.4373 16.0137 45.4373 16.0139 45.4373C18.4835 45.4373 20.5058 44.3218 21.7782 42.2785C23.4476 44.2732 25.7971 45.3479 28.5776 45.3479C30.7926 45.3479 33.2551 44.6713 35.8966 43.3368C43.2505 39.6213 49.161 27.2553 49.409 26.7306L50 25.4806L48.6432 25.2144ZM38.9025 17.2725C38.1926 16.6913 37.3751 16.1473 36.4547 15.6489C35.3155 15.0319 34.0553 14.5064 32.7065 14.0761C32.2761 12.727 31.7507 11.4668 31.1334 10.3274C30.635 9.40711 30.0911 8.58956 29.5098 7.8797C33.79 9.57511 37.2073 12.9925 38.9025 17.2725ZM39.9284 22.3204H34.0621C34.0003 20.3417 33.7674 18.42 33.378 16.6108C36.8737 17.9767 39.3348 20.0218 39.9284 22.3204ZM24.4619 6.85381C26.7606 7.44748 28.8057 9.90877 30.1718 13.4045C28.3624 13.015 26.4409 12.7823 24.4619 12.7204V6.85381ZM24.4619 14.8735C26.776 14.9532 28.9789 15.2874 30.9616 15.8207C31.495 17.8035 31.8291 20.0063 31.9089 22.3203H24.4619V14.8735ZM24.4619 24.4728H31.9089C31.9056 24.5679 31.902 24.663 31.8979 24.7578C30.103 25.0908 28.5517 25.5845 27.2584 26.2378C26.2258 26.7595 25.2934 27.3163 24.4619 27.9064V24.4728ZM22.3093 6.85381V12.7204C20.3305 12.7823 18.4088 13.015 16.5994 13.4045C17.9655 9.90877 20.0108 7.44748 22.3093 6.85381ZM22.3093 14.8735V22.3204H14.8623C14.942 20.0064 15.2762 17.8035 15.8096 15.8207C17.7923 15.2874 19.9953 14.9533 22.3093 14.8735ZM17.2613 7.87994C16.68 8.58981 16.1361 9.40736 15.6377 10.3277C15.0206 11.4669 14.4951 12.7273 14.0648 14.0762C12.7157 14.5067 11.4556 15.032 10.3162 15.6491C9.39592 16.1476 8.57836 16.6914 7.8685 17.2726C9.56392 12.9923 12.9812 9.57511 17.2613 7.87994ZM13.3933 16.6106C13.0038 18.42 12.771 20.3415 12.7092 22.3204H6.84273C7.43628 20.0218 9.89757 17.9767 13.3933 16.6106ZM12.7092 24.4728C12.7669 26.3186 12.9729 28.1147 13.3163 29.8164C12.9476 29.7549 12.566 29.7018 12.1712 29.658C9.32931 28.3182 7.36437 26.4934 6.84273 24.4728H12.7092ZM19.4171 41.8477C18.7033 42.6354 17.6262 43.2847 16.0139 43.2847H16.0134C14.6954 43.2845 13.1858 42.8595 11.5265 42.0212C7.86393 40.1706 4.55981 34.6198 3.19718 32.0872C4.55438 31.8931 6.72679 31.6476 9.03265 31.6476C12.1023 31.6476 14.4918 32.0685 16.1349 32.8986C17.6155 33.6465 18.7484 34.4837 19.5256 35.3857C19.3711 36.9548 19.6703 38.5612 20.4198 40.136L9.53863 35.0412L19.4171 41.8477ZM18.0036 31.4638C17.716 31.2974 17.4174 31.135 17.1054 30.9774C16.6633 30.754 16.1794 30.557 15.6589 30.3838C15.2134 28.5571 14.9344 26.5604 14.8623 24.4727H22.3093V29.7376C21.6698 30.4005 21.1362 31.0963 20.7093 31.8234C19.7818 31.7431 18.8774 31.6221 18.0036 31.4638ZM34.926 41.4154C32.5883 42.5965 30.4523 43.1952 28.5776 43.1952C26.0765 43.1952 24.457 42.127 23.4191 40.8826L38.3632 31.3102L22.4614 39.417C22.4582 39.4105 22.4547 39.404 22.4514 39.3976C20.3236 35.1851 22.4295 31.0889 28.2291 28.1591C30.5442 26.9895 33.8895 26.3965 38.1722 26.3965C41.6997 26.3965 45.0112 26.8133 46.8153 27.0888C45.1226 30.3092 40.3238 38.6883 34.926 41.4154Z" fill="white"/>
</g>
<defs>
<clipPath id="clip0">
<rect width="50" height="50" fill="white"/>
</clipPath>
</defs>
</svg>
