<svg width="14" height="14" viewBox="0 0 14 14" fill="none" xmlns="http://www.w3.org/2000/svg">
<path d="M7 0C3.14018 0 0 3.14018 0 7C0 10.8598 3.14018 14 7 14C10.8598 14 14 10.8598 14 7C14 3.14018 10.8598 0 7 0ZM7 13.1991C3.58182 13.1991 0.800885 10.4182 0.800885 7C0.800885 3.58182 3.58182 0.800885 7 0.800885C10.4182 0.800885 13.1991 3.58182 13.1991 7C13.1991 10.4182 10.4182 13.1991 7 13.1991Z" fill="#CD9D2F"/>
<path d="M9.5491 3.57422H4.45085C3.98469 3.57422 3.60547 3.95344 3.60547 4.4196V9.58085C3.60547 10.047 3.98469 10.4262 4.45085 10.4262H9.5491C10.0153 10.4262 10.3945 10.047 10.3945 9.58085V4.4196C10.3945 3.95348 10.0153 3.57422 9.5491 3.57422ZM9.59359 9.58085C9.59359 9.60541 9.57366 9.62535 9.5491 9.62535H4.45085C4.42629 9.62535 4.40635 9.60541 4.40635 9.58085V4.4196C4.40635 4.39504 4.42629 4.3751 4.45085 4.3751H9.5491C9.57366 4.3751 9.59359 4.39504 9.59359 4.4196V9.58085Z" fill="#CD9D2F"/>
<path d="M9.0852 4.97461H8.16797V5.81603H9.0852V4.97461Z" fill="#CD9D2F"/>
<path d="M6.99902 8.24315C7.49844 8.24315 7.9033 7.83828 7.9033 7.33886C7.9033 6.83943 7.49844 6.43457 6.99902 6.43457C6.49959 6.43457 6.09473 6.83943 6.09473 7.33886C6.09473 7.83828 6.49959 8.24315 6.99902 8.24315Z" fill="#CD9D2F"/>
<path d="M8.44387 7.33509C8.44387 8.13171 7.79809 8.77749 7.00147 8.77749C6.20486 8.77749 5.55908 8.13171 5.55908 7.33509L5.56104 6.69238H4.91602V9.0844H9.08698V6.69238H8.4472L8.44387 7.33509Z" fill="#CD9D2F"/>
</svg>
