<svg width="40" height="40" viewBox="0 0 40 40" fill="none" xmlns="http://www.w3.org/2000/svg">
<path d="M19.9997 8.33331C19.0792 8.33331 18.333 9.07951 18.333 9.99998V16.6666C18.333 17.5871 19.0792 18.3333 19.9997 18.3333C20.9202 18.3333 21.6663 17.5871 21.6663 16.6666V9.99998C21.6663 9.07951 20.9202 8.33331 19.9997 8.33331Z" fill="#031D1E"/>
<path fill-rule="evenodd" clip-rule="evenodd" d="M6.66699 13.3333C6.66699 5.96953 12.6365 0 20.0003 0C27.3642 0 33.3337 5.96953 33.3337 13.3333V26.6667C33.3337 34.0305 27.3642 40 20.0003 40C12.6365 40 6.66699 34.0305 6.66699 26.6667V13.3333ZM30.0003 13.3333V26.6667C30.0003 32.1895 25.5232 36.6667 20.0003 36.6667C14.4775 36.6667 10.0003 32.1895 10.0003 26.6667V13.3333C10.0003 7.81048 14.4775 3.33333 20.0003 3.33333C25.5232 3.33333 30.0003 7.81048 30.0003 13.3333Z" fill="#031D1E"/>
</svg>
