<svg width="14" height="14" viewBox="0 0 14 14" fill="none" xmlns="http://www.w3.org/2000/svg">
<g id="Maps/local_phone_24px">
<g id="&#226;&#134;&#179; Light Color">
<path id="Mask" opacity="0.5" d="M10.6063 11.4637C10.093 11.4228 9.58551 11.3353 9.08967 11.2012L8.39551 11.8953C9.09551 12.1345 9.84217 12.2862 10.6122 12.3328V11.4637H10.6063Z" fill="#CD9D2F"/>
</g>
<g id="&#226;&#134;&#179; Light Color_2">
<path id="Mask_2" opacity="0.5" d="M3.59941 5.70029C3.45941 5.21612 3.37191 4.70862 3.33691 4.18945H2.46191C2.51441 4.95945 2.66608 5.70029 2.89941 6.40612L3.59941 5.70029Z" fill="#CD9D2F"/>
</g>
<g id="&#226;&#134;&#179; Dark Color">
<path id="Mask_3" fill-rule="evenodd" clip-rule="evenodd" d="M1.27246 3.60579C1.27246 9.08329 5.71163 13.5225 11.1891 13.5225C11.51 13.5225 11.7725 13.26 11.7725 12.9391V10.9033C11.7725 10.5825 11.51 10.32 11.1891 10.32C10.4658 10.32 9.75996 10.2033 9.10663 9.98746C9.04829 9.96413 8.98413 9.95829 8.92579 9.95829C8.77413 9.95829 8.62829 10.0166 8.51163 10.1275L7.22829 11.4108C5.57746 10.565 4.22413 9.21746 3.38413 7.56663L4.66746 6.28329C4.83079 6.11996 4.87746 5.89246 4.81329 5.68829C4.59746 5.03496 4.48079 4.33496 4.48079 3.60579C4.48079 3.28496 4.21829 3.02246 3.89746 3.02246H1.85579C1.53496 3.02246 1.27246 3.28496 1.27246 3.60579ZM9.08908 11.2008C9.58491 11.3408 10.0924 11.4283 10.6057 11.4633V12.3325C9.83574 12.28 9.09491 12.1283 8.38908 11.895L9.08908 11.2008ZM3.60001 5.69988C3.46001 5.21571 3.37251 4.70821 3.33751 4.18904H2.45668C2.50918 4.95904 2.66085 5.69988 2.90001 6.39988L3.60001 5.69988Z" fill="#CD9D2F"/>
</g>
</g>
</svg>
