<svg width="14" height="14" viewBox="0 0 14 14" fill="none" xmlns="http://www.w3.org/2000/svg">
<path opacity="0.5" fill-rule="evenodd" clip-rule="evenodd" d="M6.99967 2.33301C8.60967 2.33301 9.91634 3.63967 9.91634 5.24967C9.91634 6.92967 8.23634 9.44384 6.99967 11.013C5.78634 9.45551 4.08301 6.91217 4.08301 5.24967C4.08301 3.63967 5.38967 2.33301 6.99967 2.33301ZM6.99953 3.79141C6.19453 3.79141 5.5412 4.44475 5.5412 5.24975C5.5412 6.05475 6.19453 6.70808 6.99953 6.70808C7.80453 6.70808 8.45786 6.05475 8.45786 5.24975C8.45786 4.44475 7.80453 3.79141 6.99953 3.79141Z" fill="#CD9D2F"/>
<path fill-rule="evenodd" clip-rule="evenodd" d="M7.00033 1.16699C9.25783 1.16699 11.0837 2.99283 11.0837 5.25033C11.0837 8.31283 7.00033 12.8337 7.00033 12.8337C7.00033 12.8337 2.91699 8.31283 2.91699 5.25033C2.91699 2.99283 4.74283 1.16699 7.00033 1.16699ZM9.91714 5.25025C9.91714 3.64025 8.61047 2.33359 7.00047 2.33359C5.39047 2.33359 4.0838 3.64025 4.0838 5.25025C4.0838 6.91275 5.78714 9.45608 7.00047 11.0136C8.23714 9.44442 9.91714 6.93025 9.91714 5.25025Z" fill="#CD9D2F"/>
<path d="M7.00033 6.70866C7.80574 6.70866 8.45866 6.05574 8.45866 5.25032C8.45866 4.44491 7.80574 3.79199 7.00033 3.79199C6.19491 3.79199 5.54199 4.44491 5.54199 5.25032C5.54199 6.05574 6.19491 6.70866 7.00033 6.70866Z" fill="#CD9D2F"/>
</svg>
